<mxfile host="Electron" agent="Mozilla/5.0 (Windows NT 10.0; Win64; x64) AppleWebKit/537.36 (KHTML, like Gecko) draw.io/27.0.9 Chrome/134.0.6998.205 Electron/35.4.0 Safari/537.36" version="27.0.9">
  <diagram name="Page-1" id="AxG-ZHre0z0DWc8P7B6O">
    <mxGraphModel dx="1426" dy="841" grid="1" gridSize="10" guides="1" tooltips="1" connect="1" arrows="1" fold="1" page="1" pageScale="1" pageWidth="850" pageHeight="1100" math="0" shadow="0">
      <root>
        <mxCell id="0" />
        <mxCell id="1" parent="0" />
        <mxCell id="KYBrn_YQMHCSWNILgUpt-1" value="Data Flow Diagram" style="text;html=1;align=left;verticalAlign=middle;whiteSpace=wrap;rounded=0;fontSize=24;fontStyle=1" parent="1" vertex="1">
          <mxGeometry x="10" y="20" width="220" height="30" as="geometry" />
        </mxCell>
        <mxCell id="KYBrn_YQMHCSWNILgUpt-3" value="" style="rounded=0;whiteSpace=wrap;html=1;fillColor=none;dashed=1;" parent="1" vertex="1">
          <mxGeometry x="60" y="110" width="120" height="340" as="geometry" />
        </mxCell>
        <mxCell id="KYBrn_YQMHCSWNILgUpt-4" value="&lt;b&gt;Sources&lt;/b&gt;" style="text;html=1;align=center;verticalAlign=middle;whiteSpace=wrap;rounded=0;fontSize=20;fillColor=default;" parent="1" vertex="1">
          <mxGeometry x="75.5" y="88" width="90" height="30" as="geometry" />
        </mxCell>
        <mxCell id="KYBrn_YQMHCSWNILgUpt-17" style="edgeStyle=orthogonalEdgeStyle;rounded=0;orthogonalLoop=1;jettySize=auto;html=1;entryX=-0.015;entryY=0.297;entryDx=0;entryDy=0;entryPerimeter=0;" parent="1" source="KYBrn_YQMHCSWNILgUpt-5" target="KYBrn_YQMHCSWNILgUpt-9" edge="1">
          <mxGeometry relative="1" as="geometry">
            <mxPoint x="230" y="228" as="targetPoint" />
          </mxGeometry>
        </mxCell>
        <mxCell id="KYBrn_YQMHCSWNILgUpt-5" value="" style="image;aspect=fixed;html=1;points=[];align=center;fontSize=12;image=img/lib/azure2/general/Folder_Blank.svg;" parent="1" vertex="1">
          <mxGeometry x="90" y="200" width="69" height="56.00000000000001" as="geometry" />
        </mxCell>
        <mxCell id="KYBrn_YQMHCSWNILgUpt-25" style="edgeStyle=orthogonalEdgeStyle;rounded=0;orthogonalLoop=1;jettySize=auto;html=1;" parent="1" source="KYBrn_YQMHCSWNILgUpt-6" target="KYBrn_YQMHCSWNILgUpt-21" edge="1">
          <mxGeometry relative="1" as="geometry" />
        </mxCell>
        <mxCell id="KYBrn_YQMHCSWNILgUpt-26" style="edgeStyle=orthogonalEdgeStyle;rounded=0;orthogonalLoop=1;jettySize=auto;html=1;entryX=0;entryY=0.5;entryDx=0;entryDy=0;" parent="1" source="KYBrn_YQMHCSWNILgUpt-6" target="KYBrn_YQMHCSWNILgUpt-23" edge="1">
          <mxGeometry relative="1" as="geometry" />
        </mxCell>
        <mxCell id="KYBrn_YQMHCSWNILgUpt-6" value="" style="image;aspect=fixed;html=1;points=[];align=center;fontSize=12;image=img/lib/azure2/general/Folder_Blank.svg;" parent="1" vertex="1">
          <mxGeometry x="86" y="334" width="69" height="56.00000000000001" as="geometry" />
        </mxCell>
        <mxCell id="KYBrn_YQMHCSWNILgUpt-7" value="CRM" style="text;html=1;align=center;verticalAlign=middle;whiteSpace=wrap;rounded=0;" parent="1" vertex="1">
          <mxGeometry x="94" y="260" width="60" height="30" as="geometry" />
        </mxCell>
        <mxCell id="KYBrn_YQMHCSWNILgUpt-8" value="ERP" style="text;html=1;align=center;verticalAlign=middle;whiteSpace=wrap;rounded=0;" parent="1" vertex="1">
          <mxGeometry x="90.5" y="394" width="60" height="30" as="geometry" />
        </mxCell>
        <mxCell id="KYBrn_YQMHCSWNILgUpt-9" value="" style="rounded=1;whiteSpace=wrap;html=1;fillColor=#ffe6cc;dashed=1;fillStyle=hatch;strokeColor=#d79b00;" parent="1" vertex="1">
          <mxGeometry x="240" y="133" width="130" height="320" as="geometry" />
        </mxCell>
        <mxCell id="KYBrn_YQMHCSWNILgUpt-10" value="&lt;font style=&quot;font-size: 20px;&quot;&gt;Bronze Layer&lt;/font&gt;" style="text;html=1;align=center;verticalAlign=middle;whiteSpace=wrap;rounded=1;fillColor=#ffe6cc;strokeColor=#D79B00;fontStyle=1" parent="1" vertex="1">
          <mxGeometry x="240" y="88" width="130" height="40" as="geometry" />
        </mxCell>
        <mxCell id="KYBrn_YQMHCSWNILgUpt-11" value="crm_sales_details" style="rounded=1;whiteSpace=wrap;html=1;fillColor=#ffe6cc;strokeColor=#D79B00;" parent="1" vertex="1">
          <mxGeometry x="245" y="169" width="120" height="30" as="geometry" />
        </mxCell>
        <mxCell id="KYBrn_YQMHCSWNILgUpt-15" value="crm_cust_info" style="rounded=1;whiteSpace=wrap;html=1;fillColor=#ffe6cc;strokeColor=#D79B00;" parent="1" vertex="1">
          <mxGeometry x="245" y="213" width="120" height="30" as="geometry" />
        </mxCell>
        <mxCell id="QX5rDl1YviEEvIuz55iE-12" value="" style="edgeStyle=orthogonalEdgeStyle;rounded=0;orthogonalLoop=1;jettySize=auto;html=1;" parent="1" edge="1">
          <mxGeometry relative="1" as="geometry">
            <mxPoint x="357" y="268" as="sourcePoint" />
            <mxPoint x="447" y="268" as="targetPoint" />
          </mxGeometry>
        </mxCell>
        <mxCell id="KYBrn_YQMHCSWNILgUpt-16" value="crm_prd_info" style="rounded=1;whiteSpace=wrap;html=1;fillColor=#ffe6cc;strokeColor=#D79B00;" parent="1" vertex="1">
          <mxGeometry x="245" y="253" width="120" height="30" as="geometry" />
        </mxCell>
        <mxCell id="KYBrn_YQMHCSWNILgUpt-18" style="edgeStyle=orthogonalEdgeStyle;rounded=0;orthogonalLoop=1;jettySize=auto;html=1;entryX=-0.008;entryY=0.163;entryDx=0;entryDy=0;entryPerimeter=0;" parent="1" source="KYBrn_YQMHCSWNILgUpt-5" target="KYBrn_YQMHCSWNILgUpt-9" edge="1">
          <mxGeometry relative="1" as="geometry" />
        </mxCell>
        <mxCell id="KYBrn_YQMHCSWNILgUpt-19" style="edgeStyle=orthogonalEdgeStyle;rounded=0;orthogonalLoop=1;jettySize=auto;html=1;entryX=-0.008;entryY=0.441;entryDx=0;entryDy=0;entryPerimeter=0;" parent="1" source="KYBrn_YQMHCSWNILgUpt-5" target="KYBrn_YQMHCSWNILgUpt-9" edge="1">
          <mxGeometry relative="1" as="geometry" />
        </mxCell>
        <mxCell id="KYBrn_YQMHCSWNILgUpt-21" value="erp_cust_az12" style="rounded=1;whiteSpace=wrap;html=1;fillColor=#ffe6cc;strokeColor=#D79B00;" parent="1" vertex="1">
          <mxGeometry x="245" y="310" width="120" height="30" as="geometry" />
        </mxCell>
        <mxCell id="KYBrn_YQMHCSWNILgUpt-22" value="erp_loc_a101" style="rounded=1;whiteSpace=wrap;html=1;fillColor=#ffe6cc;strokeColor=#D79B00;" parent="1" vertex="1">
          <mxGeometry x="245" y="350" width="120" height="30" as="geometry" />
        </mxCell>
        <mxCell id="QX5rDl1YviEEvIuz55iE-15" value="" style="edgeStyle=orthogonalEdgeStyle;rounded=0;orthogonalLoop=1;jettySize=auto;html=1;" parent="1" source="KYBrn_YQMHCSWNILgUpt-23" target="QX5rDl1YviEEvIuz55iE-8" edge="1">
          <mxGeometry relative="1" as="geometry" />
        </mxCell>
        <mxCell id="KYBrn_YQMHCSWNILgUpt-23" value="erp_px_cat_g1v2" style="rounded=1;whiteSpace=wrap;html=1;fillColor=#ffe6cc;strokeColor=#D79B00;" parent="1" vertex="1">
          <mxGeometry x="245" y="390" width="120" height="30" as="geometry" />
        </mxCell>
        <mxCell id="KYBrn_YQMHCSWNILgUpt-24" style="edgeStyle=orthogonalEdgeStyle;rounded=0;orthogonalLoop=1;jettySize=auto;html=1;entryX=-0.015;entryY=0.716;entryDx=0;entryDy=0;entryPerimeter=0;" parent="1" source="KYBrn_YQMHCSWNILgUpt-6" target="KYBrn_YQMHCSWNILgUpt-9" edge="1">
          <mxGeometry relative="1" as="geometry" />
        </mxCell>
        <mxCell id="QX5rDl1YviEEvIuz55iE-1" value="" style="rounded=1;whiteSpace=wrap;html=1;fillColor=#f5f5f5;dashed=1;fillStyle=hatch;strokeColor=#666666;fontColor=#333333;" parent="1" vertex="1">
          <mxGeometry x="450" y="133" width="130" height="320" as="geometry" />
        </mxCell>
        <mxCell id="QX5rDl1YviEEvIuz55iE-2" value="&lt;font style=&quot;font-size: 20px;&quot;&gt;Silver Layer&lt;/font&gt;" style="text;html=1;align=center;verticalAlign=middle;whiteSpace=wrap;rounded=1;fillColor=#f5f5f5;strokeColor=#666666;fontStyle=1;fontColor=#333333;" parent="1" vertex="1">
          <mxGeometry x="450" y="88" width="130" height="40" as="geometry" />
        </mxCell>
        <mxCell id="QX5rDl1YviEEvIuz55iE-3" value="crm_sales_details" style="rounded=1;whiteSpace=wrap;html=1;fillColor=#f5f5f5;strokeColor=#666666;fontColor=#333333;" parent="1" vertex="1">
          <mxGeometry x="455" y="169" width="120" height="30" as="geometry" />
        </mxCell>
        <mxCell id="QX5rDl1YviEEvIuz55iE-4" value="crm_cust_info" style="rounded=1;whiteSpace=wrap;html=1;fillColor=#f5f5f5;strokeColor=#666666;fontColor=#333333;" parent="1" vertex="1">
          <mxGeometry x="455" y="213" width="120" height="30" as="geometry" />
        </mxCell>
        <mxCell id="QX5rDl1YviEEvIuz55iE-5" value="crm_prd_info" style="rounded=1;whiteSpace=wrap;html=1;fillColor=#f5f5f5;strokeColor=#666666;fontColor=#333333;" parent="1" vertex="1">
          <mxGeometry x="455" y="253" width="120" height="30" as="geometry" />
        </mxCell>
        <mxCell id="QX5rDl1YviEEvIuz55iE-6" value="erp_cust_az12" style="rounded=1;whiteSpace=wrap;html=1;fillColor=#f5f5f5;strokeColor=#666666;fontColor=#333333;" parent="1" vertex="1">
          <mxGeometry x="455" y="310" width="120" height="30" as="geometry" />
        </mxCell>
        <mxCell id="QX5rDl1YviEEvIuz55iE-7" value="erp_loc_a101" style="rounded=1;whiteSpace=wrap;html=1;fillColor=#f5f5f5;strokeColor=#666666;fontColor=#333333;" parent="1" vertex="1">
          <mxGeometry x="455" y="350" width="120" height="30" as="geometry" />
        </mxCell>
        <mxCell id="rrXQEXYdXTJwvuJWq0i6-1" value="" style="rounded=1;whiteSpace=wrap;html=1;fillColor=#fff2cc;dashed=1;fillStyle=hatch;strokeColor=#d6b656;" vertex="1" parent="1">
          <mxGeometry x="670" y="133" width="130" height="320" as="geometry" />
        </mxCell>
        <mxCell id="rrXQEXYdXTJwvuJWq0i6-2" value="&lt;font style=&quot;font-size: 20px;&quot;&gt;Gold Layer&lt;/font&gt;" style="text;html=1;align=center;verticalAlign=middle;whiteSpace=wrap;rounded=1;fillColor=#fff2cc;strokeColor=#d6b656;fontStyle=1;" vertex="1" parent="1">
          <mxGeometry x="670" y="88" width="130" height="40" as="geometry" />
        </mxCell>
        <mxCell id="rrXQEXYdXTJwvuJWq0i6-3" value="fact_sales" style="rounded=1;whiteSpace=wrap;html=1;fillColor=#fff2cc;strokeColor=#d6b656;" vertex="1" parent="1">
          <mxGeometry x="675" y="169" width="120" height="30" as="geometry" />
        </mxCell>
        <mxCell id="rrXQEXYdXTJwvuJWq0i6-4" value="dim_customers" style="rounded=1;whiteSpace=wrap;html=1;fillColor=#fff2cc;strokeColor=#d6b656;" vertex="1" parent="1">
          <mxGeometry x="675" y="250" width="120" height="30" as="geometry" />
        </mxCell>
        <mxCell id="rrXQEXYdXTJwvuJWq0i6-5" value="dim_products" style="rounded=1;whiteSpace=wrap;html=1;fillColor=#fff2cc;strokeColor=#d6b656;" vertex="1" parent="1">
          <mxGeometry x="675" y="335" width="120" height="30" as="geometry" />
        </mxCell>
        <mxCell id="rrXQEXYdXTJwvuJWq0i6-9" value="" style="endArrow=classic;html=1;rounded=0;entryX=-0.031;entryY=0.181;entryDx=0;entryDy=0;entryPerimeter=0;" edge="1" parent="1" target="rrXQEXYdXTJwvuJWq0i6-1">
          <mxGeometry width="50" height="50" relative="1" as="geometry">
            <mxPoint x="575" y="190" as="sourcePoint" />
            <mxPoint x="660" y="190" as="targetPoint" />
          </mxGeometry>
        </mxCell>
        <mxCell id="rrXQEXYdXTJwvuJWq0i6-10" value="" style="endArrow=classic;html=1;rounded=0;entryX=0.023;entryY=0.409;entryDx=0;entryDy=0;entryPerimeter=0;jumpStyle=gap;" edge="1" parent="1" target="rrXQEXYdXTJwvuJWq0i6-1">
          <mxGeometry width="50" height="50" relative="1" as="geometry">
            <mxPoint x="575" y="230" as="sourcePoint" />
            <mxPoint x="667" y="226" as="targetPoint" />
          </mxGeometry>
        </mxCell>
        <mxCell id="rrXQEXYdXTJwvuJWq0i6-11" value="" style="endArrow=classic;html=1;rounded=0;jumpStyle=gap;" edge="1" parent="1">
          <mxGeometry width="50" height="50" relative="1" as="geometry">
            <mxPoint x="575" y="327" as="sourcePoint" />
            <mxPoint x="670" y="270" as="targetPoint" />
          </mxGeometry>
        </mxCell>
        <mxCell id="rrXQEXYdXTJwvuJWq0i6-12" value="" style="endArrow=classic;html=1;rounded=0;jumpStyle=gap;" edge="1" parent="1">
          <mxGeometry width="50" height="50" relative="1" as="geometry">
            <mxPoint x="575" y="270" as="sourcePoint" />
            <mxPoint x="666" y="342" as="targetPoint" />
          </mxGeometry>
        </mxCell>
        <mxCell id="rrXQEXYdXTJwvuJWq0i6-13" value="" style="endArrow=classic;html=1;rounded=0;entryX=-0.008;entryY=0.447;entryDx=0;entryDy=0;entryPerimeter=0;jumpStyle=gap;" edge="1" parent="1" target="rrXQEXYdXTJwvuJWq0i6-1">
          <mxGeometry width="50" height="50" relative="1" as="geometry">
            <mxPoint x="575" y="369" as="sourcePoint" />
            <mxPoint x="667" y="365" as="targetPoint" />
          </mxGeometry>
        </mxCell>
        <mxCell id="rrXQEXYdXTJwvuJWq0i6-14" value="" style="endArrow=classic;html=1;rounded=0;exitX=1;exitY=0.5;exitDx=0;exitDy=0;jumpStyle=gap;" edge="1" parent="1" source="QX5rDl1YviEEvIuz55iE-8">
          <mxGeometry width="50" height="50" relative="1" as="geometry">
            <mxPoint x="570" y="407" as="sourcePoint" />
            <mxPoint x="670" y="359" as="targetPoint" />
          </mxGeometry>
        </mxCell>
        <mxCell id="rrXQEXYdXTJwvuJWq0i6-15" value="" style="endArrow=classic;html=1;rounded=0;" edge="1" parent="1">
          <mxGeometry width="50" height="50" relative="1" as="geometry">
            <mxPoint x="363" y="364" as="sourcePoint" />
            <mxPoint x="450" y="364" as="targetPoint" />
          </mxGeometry>
        </mxCell>
        <mxCell id="rrXQEXYdXTJwvuJWq0i6-16" value="" style="endArrow=classic;html=1;rounded=0;entryX=0.023;entryY=0.706;entryDx=0;entryDy=0;entryPerimeter=0;" edge="1" parent="1" target="QX5rDl1YviEEvIuz55iE-8">
          <mxGeometry width="50" height="50" relative="1" as="geometry">
            <mxPoint x="570" y="407" as="sourcePoint" />
            <mxPoint x="673" y="359" as="targetPoint" />
          </mxGeometry>
        </mxCell>
        <mxCell id="QX5rDl1YviEEvIuz55iE-8" value="erp_px_cat_g1v2" style="rounded=1;whiteSpace=wrap;html=1;fillColor=#f5f5f5;strokeColor=#666666;fontColor=#333333;" parent="1" vertex="1">
          <mxGeometry x="455" y="390" width="120" height="30" as="geometry" />
        </mxCell>
        <mxCell id="rrXQEXYdXTJwvuJWq0i6-18" value="" style="endArrow=classic;html=1;rounded=0;entryX=-0.031;entryY=0.306;entryDx=0;entryDy=0;entryPerimeter=0;" edge="1" parent="1" target="QX5rDl1YviEEvIuz55iE-1">
          <mxGeometry width="50" height="50" relative="1" as="geometry">
            <mxPoint x="365" y="230" as="sourcePoint" />
            <mxPoint x="415" y="180" as="targetPoint" />
          </mxGeometry>
        </mxCell>
        <mxCell id="rrXQEXYdXTJwvuJWq0i6-19" value="" style="endArrow=classic;html=1;rounded=0;entryX=-0.031;entryY=0.306;entryDx=0;entryDy=0;entryPerimeter=0;" edge="1" parent="1">
          <mxGeometry width="50" height="50" relative="1" as="geometry">
            <mxPoint x="365" y="190" as="sourcePoint" />
            <mxPoint x="446" y="191" as="targetPoint" />
          </mxGeometry>
        </mxCell>
        <mxCell id="rrXQEXYdXTJwvuJWq0i6-20" value="" style="edgeStyle=orthogonalEdgeStyle;rounded=0;orthogonalLoop=1;jettySize=auto;html=1;" edge="1" parent="1">
          <mxGeometry relative="1" as="geometry">
            <mxPoint x="360" y="324.5" as="sourcePoint" />
            <mxPoint x="450" y="324.5" as="targetPoint" />
          </mxGeometry>
        </mxCell>
      </root>
    </mxGraphModel>
  </diagram>
</mxfile>
